<svg xmlns="http://www.w3.org/2000/svg" version="1.1" xmlns:xlink="http://www.w3.org/1999/xlink" xmlns:svgjs="http://svgjs.dev/svgjs" width="1440" height="560" preserveAspectRatio="none" viewBox="0 0 1440 560"><g mask="url(&quot;#SvgjsMask1000&quot;)" fill="none"><rect width="1440" height="560" x="0" y="0" fill="#0e2a47"></rect><path d="M0,437.062C80.849,433.883,131.515,348.069,184.259,286.712C225.183,239.105,238.326,177.532,269.796,123.211C305.724,61.196,375.607,16.415,382.198,-54.952C389.188,-130.639,351.438,-204.175,305.631,-264.831C257.837,-328.118,195.572,-384.808,118.617,-403.974C42.853,-422.843,-37.984,-402.381,-108.01,-367.848C-171.394,-336.591,-215.396,-279.309,-254.094,-220.174C-288.735,-167.238,-303.408,-107.205,-318.741,-45.828C-335.84,22.621,-372.774,92.947,-348.9,159.337C-324.673,226.709,-249.829,256.99,-193.813,301.579C-130.866,351.685,-80.392,440.223,0,437.062" fill="#0b2239"></path><path d="M1440 1063.345C1536.2930000000001 1054.346 1621.755 1016.383 1713.3519999999999 985.344 1837.203 943.375 1993.595 953.0740000000001 2072.697 848.943 2152.3379999999997 744.102 2134.3559999999998 593.037 2109.593 463.727 2085.549 338.172 2031.3780000000002 215.118 1935.195 130.911 1844.437 51.452999999999975 1719.711 26.017000000000053 1599.417 17.075000000000045 1495.392 9.342999999999961 1399.773 52.793000000000006 1300.147 83.70600000000002 1202.2 114.09800000000001 1086.876 118.32799999999997 1020.678 196.65499999999997 954.626 274.809 980.355 390.988 956.374 490.46500000000003 929.2090000000001 603.153 835.124 709.713 870.377 820.1379999999999 905.694 930.765 1024.913 994.102 1131.714 1039.702 1228.459 1081.008 1335.262 1073.133 1440 1063.345" fill="#113255"></path></g><defs><mask id="SvgjsMask1000"><rect width="1440" height="560" fill="#ffffff"></rect></mask></defs></svg>