<svg xmlns="http://www.w3.org/2000/svg" width="1440" height="560" preserveAspectRatio="none" xmlns:v="https://vecta.io/nano"><g mask="url(#A)"><path fill="#0e2a47" d="M0 0h1440v560H0z"/><path d="M0 437.062c80.849-3.179 131.515-88.993 184.259-150.35 40.924-47.607 54.067-109.18 85.537-163.501C305.724 61.196 375.607 16.415 382.198-54.952c6.99-75.687-30.76-149.223-76.567-209.879-47.794-63.287-110.059-119.977-187.014-139.143-75.764-18.869-156.601 1.593-226.627 36.126-63.384 31.257-107.386 88.539-146.084 147.674-34.641 52.936-49.314 112.969-64.647 174.346-17.099 68.449-54.033 138.775-30.159 205.165 24.227 67.372 99.071 97.653 155.087 142.242C-130.866 351.685-80.392 440.223 0 437.062" fill="#0b2239"/><path d="M1440 1063.345c96.293-8.999 181.755-46.962 273.352-78.001 123.851-41.969 280.243-32.27 359.345-136.401 79.641-104.841 61.659-255.906 36.896-385.216-24.044-125.555-78.215-248.609-174.398-332.816-90.758-79.458-215.484-104.894-335.778-113.836-104.025-7.732-199.644 35.718-299.27 66.631-97.947 30.392-213.271 34.622-279.469 112.949-66.052 78.154-40.323 194.333-64.304 293.81-27.165 112.688-121.25 219.248-85.997 329.673 35.317 110.627 154.536 173.964 261.337 219.564 96.745 41.306 203.548 33.431 308.286 23.643" fill="#113255"/></g><defs><mask id="A"><path fill="#fff" d="M0 0h1440v560H0z"/></mask></defs></svg>